<svg xmlns="http://www.w3.org/2000/svg" width="1200" height="760" viewBox="0 0 1200 760">
  <rect width="1200" height="760" fill="#f5f7fb"/>
  <rect width="245" height="760" fill="#102a43"/>
  <text x="28" y="60" fill="#ffffff" font-family="Segoe UI, Arial" font-size="26" font-weight="900">Smart Library</text>
  <text x="28" y="110" fill="#dbeafe" font-family="Segoe UI, Arial" font-size="16">Administrator</text>
  <text x="28" y="175" fill="#dbeafe" font-family="Segoe UI, Arial" font-size="17">Dashboard</text>
  <text x="28" y="220" fill="#dbeafe" font-family="Segoe UI, Arial" font-size="17">Books</text>
  <text x="28" y="265" fill="#dbeafe" font-family="Segoe UI, Arial" font-size="17">Users &amp; Staff</text>
  <text x="28" y="310" fill="#dbeafe" font-family="Segoe UI, Arial" font-size="17">Reports</text>
  <text x="285" y="70" fill="#12263a" font-family="Segoe UI, Arial" font-size="32" font-weight="800">Administrator Dashboard</text>
  <g fill="#ffffff" stroke="#e2e8f0">
    <rect x="285" y="120" width="190" height="110" rx="10"/><rect x="500" y="120" width="190" height="110" rx="10"/>
    <rect x="715" y="120" width="190" height="110" rx="10"/><rect x="930" y="120" width="190" height="110" rx="10"/>
  </g>
  <text x="310" y="155" fill="#64748b" font-family="Segoe UI, Arial" font-size="15">Total books</text>
  <text x="310" y="205" fill="#0f172a" font-family="Segoe UI, Arial" font-size="42" font-weight="900">18</text>
  <text x="525" y="155" fill="#64748b" font-family="Segoe UI, Arial" font-size="15">Borrowed</text>
  <text x="525" y="205" fill="#0f172a" font-family="Segoe UI, Arial" font-size="42" font-weight="900">2</text>
  <text x="740" y="155" fill="#64748b" font-family="Segoe UI, Arial" font-size="15">Overdue</text>
  <text x="740" y="205" fill="#0f172a" font-family="Segoe UI, Arial" font-size="42" font-weight="900">1</text>
  <text x="955" y="155" fill="#64748b" font-family="Segoe UI, Arial" font-size="15">Active users</text>
  <text x="955" y="205" fill="#0f172a" font-family="Segoe UI, Arial" font-size="42" font-weight="900">5</text>
  <rect x="285" y="275" width="380" height="300" rx="10" fill="#ffffff"/>
  <rect x="695" y="275" width="425" height="300" rx="10" fill="#ffffff"/>
  <text x="320" y="325" fill="#12263a" font-family="Segoe UI, Arial" font-size="22" font-weight="800">Catalog by category</text>
  <circle cx="475" cy="440" r="90" fill="#0e7490"/>
  <path d="M475 440 L475 350 A90 90 0 0 1 555 480 Z" fill="#f59e0b"/>
  <text x="730" y="325" fill="#12263a" font-family="Segoe UI, Arial" font-size="22" font-weight="800">Recent activity</text>
  <rect x="730" y="355" width="350" height="40" rx="7" fill="#f1f5f9"/>
  <rect x="730" y="410" width="350" height="40" rx="7" fill="#f1f5f9"/>
  <rect x="730" y="465" width="350" height="40" rx="7" fill="#f1f5f9"/>
</svg>
