<svg xmlns="http://www.w3.org/2000/svg" width="1200" height="760" viewBox="0 0 1200 760">
  <rect width="1200" height="760" fill="#f5f7fb"/>
  <rect width="245" height="760" fill="#102a43"/>
  <text x="28" y="60" fill="#ffffff" font-family="Segoe UI, Arial" font-size="26" font-weight="900">Smart Library</text>
  <text x="285" y="70" fill="#12263a" font-family="Segoe UI, Arial" font-size="32" font-weight="800">Book Catalog</text>
  <rect x="285" y="120" width="340" height="46" rx="8" fill="#ffffff" stroke="#d9e2ec"/>
  <text x="305" y="150" fill="#667085" font-family="Segoe UI, Arial" font-size="15">Search by title, author, or ISBN</text>
  <rect x="650" y="120" width="150" height="46" rx="8" fill="#ffffff" stroke="#d9e2ec"/>
  <text x="680" y="150" fill="#667085" font-family="Segoe UI, Arial" font-size="15">Category</text>
  <rect x="820" y="120" width="150" height="46" rx="8" fill="#ffffff" stroke="#d9e2ec"/>
  <text x="855" y="150" fill="#667085" font-family="Segoe UI, Arial" font-size="15">Status</text>
  <rect x="990" y="120" width="110" height="46" rx="8" fill="#0e7490"/>
  <text x="1015" y="150" fill="#ffffff" font-family="Segoe UI, Arial" font-size="15" font-weight="700">Add book</text>
  <rect x="285" y="205" width="815" height="430" rx="10" fill="#ffffff" stroke="#e2e8f0"/>
  <rect x="285" y="205" width="815" height="48" rx="10" fill="#eaf5f5"/>
  <text x="310" y="235" fill="#12263a" font-family="Segoe UI, Arial" font-size="15" font-weight="700">Title</text>
  <text x="500" y="235" fill="#12263a" font-family="Segoe UI, Arial" font-size="15" font-weight="700">Author</text>
  <text x="710" y="235" fill="#12263a" font-family="Segoe UI, Arial" font-size="15" font-weight="700">ISBN</text>
  <text x="900" y="235" fill="#12263a" font-family="Segoe UI, Arial" font-size="15" font-weight="700">Status</text>
  <line x1="285" y1="295" x2="1100" y2="295" stroke="#e2e8f0"/>
  <line x1="285" y1="350" x2="1100" y2="350" stroke="#e2e8f0"/>
  <line x1="285" y1="405" x2="1100" y2="405" stroke="#e2e8f0"/>
  <text x="310" y="282" fill="#334155" font-family="Segoe UI, Arial" font-size="15">Designing Interfaces</text>
  <text x="500" y="282" fill="#334155" font-family="Segoe UI, Arial" font-size="15">Jenifer Tidwell</text>
  <text x="710" y="282" fill="#334155" font-family="Segoe UI, Arial" font-size="15">9781492051961</text>
  <text x="900" y="282" fill="#0f766e" font-family="Segoe UI, Arial" font-size="15" font-weight="700">Available</text>
</svg>
